<svg id="svg" version="1.1" xmlns="http://www.w3.org/2000/svg" xmlns:xlink="http://www.w3.org/1999/xlink" width="400" height="400" viewBox="0, 0, 400,400"><g id="svgg"><path id="path0" d="M110.800 163.883 C 108.490 163.946,106.209 164.088,105.731 164.199 C 101.554 165.164,101.026 171.641,104.996 173.198 C 105.768 173.501,106.400 174.003,106.400 174.312 C 106.400 174.762,106.824 174.816,108.500 174.584 C 111.526 174.164,115.216 174.256,115.723 174.763 C 115.964 175.004,116.653 175.200,117.256 175.200 C 117.859 175.200,118.464 175.380,118.600 175.600 C 118.736 175.820,119.382 176.000,120.036 176.000 C 120.690 176.000,121.321 176.250,121.438 176.556 C 121.556 176.862,121.979 177.026,122.381 176.921 C 122.782 176.816,123.231 176.926,123.378 177.165 C 123.526 177.404,124.076 177.600,124.600 177.600 C 125.124 177.600,125.656 177.766,125.781 177.969 C 125.907 178.173,126.952 178.645,128.105 179.019 C 130.021 179.641,131.415 180.657,133.702 183.100 C 134.165 183.595,134.758 184.000,135.019 184.000 C 135.612 184.000,143.816 192.040,145.417 194.189 C 146.067 195.064,147.140 196.335,147.800 197.016 C 151.517 200.847,156.125 206.302,156.908 207.800 C 157.253 208.460,158.447 209.990,159.562 211.200 C 160.676 212.410,161.590 213.618,161.594 213.884 C 161.597 214.150,162.360 215.050,163.289 215.884 C 164.218 216.718,165.973 218.459,167.189 219.754 C 168.405 221.048,170.079 222.538,170.910 223.065 C 173.025 224.407,174.400 225.657,174.400 226.240 C 174.400 226.513,174.940 226.855,175.600 227.000 C 176.260 227.145,176.800 227.429,176.800 227.632 C 176.800 227.834,176.993 228.000,177.228 228.000 C 177.463 228.000,178.408 228.511,179.328 229.135 C 180.248 229.759,181.585 230.523,182.300 230.832 C 183.015 231.142,183.600 231.531,183.600 231.698 C 183.600 231.864,183.872 232.000,184.205 232.000 C 184.538 232.000,185.168 232.180,185.605 232.400 C 186.042 232.620,186.758 232.980,187.195 233.200 C 187.632 233.420,188.267 233.600,188.607 233.600 C 188.947 233.600,189.328 233.869,189.454 234.197 C 189.614 234.614,189.991 234.717,190.704 234.538 C 191.362 234.373,191.880 234.480,192.162 234.841 C 192.403 235.148,193.320 235.440,194.200 235.488 C 198.007 235.697,200.394 236.111,200.830 236.636 C 201.559 237.514,212.460 237.441,213.823 236.548 C 214.519 236.092,215.311 235.963,216.467 236.118 C 217.608 236.271,218.294 236.164,218.687 235.770 C 219.001 235.456,219.774 235.200,220.405 235.200 C 221.036 235.200,221.675 235.003,221.824 234.762 C 221.973 234.520,222.607 234.398,223.232 234.490 C 223.936 234.593,224.447 234.455,224.572 234.128 C 224.684 233.838,225.231 233.600,225.787 233.600 C 226.344 233.600,226.800 233.420,226.800 233.200 C 226.800 232.980,227.250 232.800,227.800 232.800 C 228.350 232.800,228.800 232.620,228.800 232.400 C 228.800 232.180,229.059 232.000,229.376 232.000 C 229.890 232.000,230.935 231.486,235.973 228.756 C 236.728 228.347,237.448 227.866,237.573 227.687 C 237.698 227.508,238.430 226.929,239.200 226.400 C 239.970 225.871,240.907 225.097,241.281 224.679 C 241.656 224.262,242.173 223.991,242.431 224.077 C 242.930 224.243,252.635 214.448,253.866 212.536 C 254.268 211.911,255.080 210.860,255.671 210.200 C 256.262 209.540,257.163 208.428,257.673 207.728 C 258.183 207.029,259.556 205.140,260.725 203.531 C 261.893 201.921,263.107 200.460,263.423 200.283 C 263.738 200.107,264.966 198.756,266.152 197.281 C 271.843 190.205,283.620 179.595,286.439 179.006 C 287.187 178.849,288.199 178.469,288.686 178.161 C 289.173 177.852,289.848 177.600,290.186 177.600 C 290.524 177.600,290.800 177.399,290.800 177.153 C 290.800 176.895,291.213 176.786,291.780 176.894 C 292.364 177.006,292.728 176.903,292.680 176.641 C 292.636 176.398,293.229 176.140,293.998 176.067 C 294.768 175.994,295.578 175.797,295.798 175.629 C 296.939 174.763,300.255 174.298,303.790 174.509 C 306.806 174.689,307.583 174.621,307.758 174.166 C 307.877 173.855,308.327 173.600,308.757 173.600 C 311.928 173.600,313.225 167.779,310.592 165.367 L 309.185 164.078 303.692 163.934 C 299.296 163.818,298.112 163.903,297.760 164.357 C 297.456 164.749,296.876 164.852,295.885 164.691 C 294.879 164.528,294.303 164.635,293.959 165.049 C 293.689 165.374,293.093 165.595,292.634 165.540 C 292.175 165.485,291.399 165.661,290.908 165.930 C 290.418 166.199,289.563 166.305,289.008 166.166 C 288.231 165.971,288.000 166.067,288.000 166.584 C 288.000 167.072,287.783 167.185,287.200 167.000 C 286.632 166.820,286.400 166.928,286.400 167.373 C 286.400 167.718,286.135 168.000,285.812 168.000 C 285.489 168.000,284.583 168.360,283.800 168.800 C 283.017 169.240,282.111 169.600,281.788 169.600 C 281.465 169.600,280.880 169.915,280.488 170.300 C 280.096 170.685,279.289 171.254,278.695 171.564 C 278.100 171.874,277.258 172.459,276.823 172.864 C 276.389 173.269,275.846 173.600,275.617 173.600 C 275.388 173.600,275.200 173.780,275.200 174.000 C 275.200 174.220,274.949 174.400,274.642 174.400 C 274.336 174.400,273.121 175.305,271.942 176.412 C 270.764 177.519,269.305 178.531,268.700 178.662 C 268.095 178.793,267.600 179.121,267.600 179.390 C 267.600 179.660,267.060 180.294,266.400 180.800 C 265.740 181.306,265.200 181.865,265.200 182.042 C 265.200 182.490,263.246 184.400,262.787 184.400 C 262.580 184.400,262.163 184.985,261.861 185.700 C 261.559 186.415,260.658 187.630,259.860 188.400 C 259.062 189.170,258.407 189.955,258.404 190.145 C 258.402 190.335,257.938 191.055,257.372 191.745 C 256.807 192.435,255.023 194.682,253.407 196.738 C 251.792 198.794,250.094 200.739,249.635 201.061 C 249.176 201.382,248.800 201.890,248.800 202.189 C 248.800 202.489,248.665 202.793,248.500 202.867 C 248.335 202.940,247.331 204.035,246.269 205.300 C 243.610 208.467,234.865 217.230,233.400 218.196 C 232.064 219.077,229.268 220.413,229.035 220.284 C 228.952 220.238,228.550 220.493,228.142 220.850 C 227.734 221.208,227.085 221.449,226.700 221.386 C 226.315 221.322,226.000 221.409,226.000 221.579 C 226.000 221.948,222.134 224.000,221.438 224.000 C 221.170 224.000,220.241 224.335,219.375 224.744 C 217.114 225.813,215.312 226.066,213.604 225.554 C 212.353 225.179,211.942 225.219,211.052 225.803 C 209.541 226.793,197.244 226.243,196.572 225.155 C 196.451 224.960,195.913 224.800,195.376 224.800 C 194.762 224.800,194.400 224.571,194.400 224.182 C 194.400 223.692,194.109 223.618,193.000 223.826 C 192.082 223.999,191.600 223.936,191.600 223.645 C 191.600 223.400,191.411 223.200,191.181 223.200 C 190.950 223.200,190.016 222.840,189.106 222.400 C 188.195 221.960,187.214 221.600,186.925 221.600 C 186.636 221.600,186.400 221.420,186.400 221.200 C 186.400 220.980,186.123 220.800,185.784 220.800 C 184.382 220.800,181.680 218.925,178.806 215.957 C 177.125 214.221,175.616 212.800,175.454 212.800 C 175.291 212.800,174.132 211.686,172.879 210.325 C 171.626 208.964,169.880 207.103,169.000 206.190 C 168.120 205.277,166.717 203.695,165.881 202.675 C 165.046 201.655,164.133 200.590,163.853 200.310 C 163.115 199.571,158.340 193.603,157.400 192.244 C 155.991 190.208,155.837 190.016,153.600 187.502 C 147.134 180.236,138.920 172.831,137.300 172.807 C 137.025 172.803,136.800 172.642,136.800 172.449 C 136.800 172.255,136.260 171.873,135.600 171.600 C 134.940 171.327,134.400 170.966,134.400 170.798 C 134.400 170.630,134.085 170.393,133.700 170.271 C 133.315 170.149,132.460 169.741,131.800 169.364 C 129.886 168.271,129.251 168.000,128.605 168.000 C 128.272 168.000,128.000 167.820,128.000 167.600 C 128.000 167.380,127.651 167.200,127.224 167.200 C 126.797 167.200,126.336 167.020,126.200 166.800 C 126.064 166.580,125.434 166.400,124.800 166.400 C 124.166 166.400,123.536 166.220,123.400 166.000 C 123.264 165.780,122.548 165.600,121.810 165.600 C 121.071 165.600,120.393 165.380,120.303 165.110 C 120.200 164.800,119.526 164.664,118.469 164.741 C 117.238 164.830,116.735 164.695,116.556 164.231 C 116.423 163.884,116.019 163.638,115.657 163.684 C 115.296 163.731,113.110 163.820,110.800 163.883 " stroke="none" fill="#b3bbf9" fill-rule="evenodd"></path><path id="path1" d="M198.133 164.200 C 198.170 164.420,197.480 164.657,196.600 164.727 C 195.720 164.796,194.829 165.021,194.620 165.227 C 194.411 165.432,193.657 165.600,192.944 165.600 C 192.231 165.600,191.536 165.780,191.400 166.000 C 191.264 166.220,190.758 166.401,190.276 166.401 C 189.794 166.402,188.794 166.772,188.054 167.223 C 186.640 168.086,184.930 168.125,185.100 167.291 C 185.155 167.021,185.017 166.800,184.792 166.800 C 184.568 166.800,184.484 167.205,184.604 167.700 C 184.823 168.594,183.508 169.600,182.120 169.600 C 181.834 169.600,181.600 169.780,181.600 170.000 C 181.600 170.220,181.375 170.401,181.100 170.402 C 180.825 170.403,179.651 171.123,178.492 172.002 C 177.332 172.881,176.283 173.600,176.160 173.600 C 174.993 173.600,159.089 188.861,158.577 190.471 C 158.443 190.895,158.622 191.680,158.978 192.223 C 160.434 194.444,163.794 198.400,164.225 198.400 C 164.743 198.400,171.200 191.719,171.200 191.182 C 171.200 190.994,171.450 190.696,171.757 190.520 C 172.063 190.344,173.881 188.705,175.797 186.879 C 180.956 181.961,180.561 180.915,180.820 200.205 C 180.941 209.222,181.076 216.641,181.120 216.692 C 181.164 216.742,181.913 217.147,182.784 217.592 C 185.826 219.144,185.600 220.653,185.600 198.800 C 185.600 183.391,185.707 179.198,186.100 179.191 C 186.375 179.186,187.050 178.830,187.600 178.400 C 188.150 177.970,188.917 177.614,189.305 177.609 C 189.693 177.604,190.413 177.392,190.905 177.138 C 192.832 176.142,193.217 176.000,194.000 176.000 C 194.446 176.000,195.179 175.775,195.630 175.500 C 197.593 174.301,197.620 174.634,197.590 200.150 C 197.575 213.203,197.720 223.880,197.915 224.075 C 198.326 224.486,201.148 224.795,201.890 224.510 C 202.296 224.354,202.400 219.225,202.400 199.434 L 202.400 174.554 207.967 174.577 C 213.693 174.601,214.462 174.762,213.632 175.762 C 213.252 176.219,213.277 176.588,213.747 177.497 C 214.368 178.698,214.221 182.000,213.547 182.000 C 213.356 182.000,213.221 182.585,213.247 183.300 L 213.295 184.600 213.600 183.400 C 213.768 182.740,213.927 188.646,213.953 196.524 C 213.984 205.983,213.864 210.763,213.600 210.600 C 213.380 210.464,213.200 210.543,213.200 210.776 C 213.200 211.009,213.380 211.200,213.600 211.200 C 214.053 211.200,214.171 220.896,213.723 221.344 C 213.269 221.798,213.158 223.273,213.599 223.001 C 213.819 222.864,214.000 223.123,214.000 223.576 C 214.000 224.628,215.750 224.697,217.786 223.726 L 219.200 223.052 219.200 199.473 L 219.200 175.895 220.737 176.101 C 221.582 176.214,224.057 177.159,226.237 178.201 L 230.200 180.094 230.085 198.847 C 229.972 217.342,229.981 217.600,230.766 217.600 C 232.138 217.600,233.354 216.807,234.700 215.034 L 236.000 213.322 236.000 199.461 C 236.000 188.637,236.110 185.601,236.500 185.604 C 237.189 185.609,240.092 187.966,241.457 189.628 C 242.076 190.383,243.172 191.518,243.892 192.151 C 244.611 192.784,245.200 193.521,245.200 193.789 C 245.200 194.337,249.399 198.800,249.915 198.800 C 250.769 198.800,256.116 191.814,255.914 190.961 C 255.676 189.952,242.287 175.842,241.538 175.811 C 241.394 175.805,240.752 175.350,240.111 174.800 C 239.032 173.873,238.267 173.372,236.204 172.238 C 235.767 171.997,235.116 171.485,234.757 171.100 C 234.399 170.715,233.812 170.400,233.453 170.400 C 233.094 170.400,232.800 170.220,232.800 170.000 C 232.800 169.780,232.564 169.600,232.275 169.600 C 231.986 169.600,231.005 169.240,230.094 168.800 C 229.184 168.360,228.250 168.000,228.019 168.000 C 227.789 168.000,227.600 167.820,227.600 167.600 C 227.600 167.380,227.251 167.200,226.824 167.200 C 226.397 167.200,225.948 167.040,225.827 166.844 C 225.706 166.649,224.931 166.373,224.104 166.233 C 220.476 165.615,219.981 165.492,219.773 165.156 C 219.652 164.960,218.978 164.798,218.276 164.795 C 216.699 164.788,215.156 164.396,215.365 164.055 C 215.451 163.915,211.594 163.800,206.794 163.800 C 201.197 163.800,198.090 163.944,198.133 164.200 M111.200 175.708 L 110.200 176.224 110.111 201.212 L 110.022 226.200 108.311 226.316 C 106.311 226.452,104.457 227.232,103.425 228.372 C 103.023 228.817,102.582 229.112,102.447 229.028 C 102.311 228.943,102.260 229.982,102.334 231.337 C 102.470 233.850,103.734 236.000,105.075 236.000 C 105.364 236.000,105.600 236.270,105.600 236.600 C 105.600 237.091,106.292 237.200,109.424 237.200 C 111.794 237.200,113.156 237.052,113.007 236.812 C 112.672 236.269,114.448 235.891,116.552 236.059 C 117.527 236.137,118.243 236.070,118.145 235.912 C 117.884 235.489,119.814 235.087,120.722 235.375 C 121.283 235.553,121.558 235.403,121.706 234.837 C 121.858 234.258,122.141 234.112,122.782 234.279 C 123.261 234.405,124.046 234.327,124.526 234.107 C 125.007 233.887,125.940 233.482,126.600 233.207 C 127.260 232.932,128.113 232.548,128.495 232.353 C 128.877 232.159,129.462 232.000,129.795 232.000 C 130.128 232.000,130.400 231.820,130.400 231.600 C 130.400 231.380,130.745 231.200,131.167 231.200 C 131.588 231.200,131.993 231.065,132.067 230.900 C 132.140 230.735,133.055 230.167,134.100 229.637 C 135.145 229.108,136.000 228.510,136.000 228.310 C 136.000 228.110,136.328 228.050,136.730 228.178 C 137.243 228.341,137.624 228.103,138.011 227.379 C 138.378 226.693,138.802 226.412,139.281 226.537 C 139.677 226.641,140.000 226.567,140.000 226.373 C 140.000 226.179,141.033 225.071,142.295 223.911 C 148.497 218.207,156.000 210.275,156.000 209.422 C 156.000 208.963,154.526 206.799,153.120 205.195 C 152.828 204.862,152.174 204.007,151.667 203.295 C 150.801 202.077,148.800 201.426,148.800 202.361 C 148.800 202.560,147.637 203.955,146.215 205.461 C 144.793 206.968,143.623 208.397,143.615 208.639 C 143.600 209.074,138.012 214.356,136.294 215.559 C 135.802 215.903,134.878 216.683,134.241 217.292 C 133.603 217.902,132.658 218.400,132.141 218.400 L 131.200 218.400 131.200 200.627 L 131.200 182.854 129.905 181.933 C 129.193 181.426,128.287 180.687,127.891 180.291 C 126.461 178.861,126.400 179.717,126.400 201.061 C 126.400 221.738,126.387 222.078,125.600 222.284 C 125.160 222.399,124.800 222.624,124.800 222.783 C 124.800 222.942,124.035 223.302,123.100 223.582 C 122.165 223.863,120.906 224.273,120.303 224.494 C 119.699 224.714,118.856 224.803,118.429 224.692 C 117.978 224.574,117.562 224.722,117.438 225.044 C 117.321 225.350,116.949 225.600,116.613 225.600 C 116.093 225.600,115.487 182.852,115.931 177.505 C 116.050 176.078,112.844 174.860,111.200 175.708 M300.200 175.953 L 298.600 176.200 298.400 200.600 L 298.200 225.000 296.435 224.918 C 295.464 224.873,294.384 224.705,294.035 224.546 C 293.686 224.387,293.098 224.224,292.728 224.184 C 290.850 223.982,288.026 222.177,287.746 221.000 C 287.335 219.270,287.488 216.417,288.026 215.769 C 288.504 215.193,288.314 207.925,287.773 206.100 C 287.613 205.558,287.678 205.200,287.938 205.200 C 288.226 205.200,288.366 203.317,288.361 199.514 C 288.356 195.867,288.220 194.038,287.983 194.414 C 287.670 194.908,287.611 194.894,287.606 194.324 C 287.603 193.952,287.780 193.536,288.000 193.400 C 288.220 193.264,288.397 192.308,288.394 191.276 C 288.389 189.917,288.281 189.565,288.000 190.000 C 287.721 190.431,287.612 190.037,287.612 188.600 C 287.612 187.500,287.779 186.336,287.983 186.013 C 288.224 185.633,288.186 185.223,287.877 184.848 C 287.506 184.398,287.511 184.233,287.900 184.102 C 288.436 183.921,288.539 182.759,288.148 181.300 C 287.752 179.823,286.207 180.159,284.173 182.164 L 282.384 183.928 282.400 200.864 C 282.409 210.179,282.413 217.971,282.408 218.180 C 282.404 218.389,282.184 218.344,281.920 218.080 C 281.656 217.816,281.175 217.600,280.851 217.600 C 280.197 217.600,276.242 214.328,273.865 211.819 C 269.974 207.715,268.505 206.089,267.396 204.659 C 265.674 202.441,264.854 201.600,264.412 201.600 C 263.902 201.600,258.294 209.098,258.467 209.549 C 258.873 210.606,269.086 221.600,269.662 221.600 C 269.808 221.600,270.766 222.416,271.792 223.413 C 273.405 224.981,274.757 226.012,277.543 227.800 C 278.615 228.488,279.200 229.125,279.200 229.605 C 279.200 229.859,279.425 229.989,279.700 229.893 C 279.975 229.798,280.629 230.053,281.154 230.460 C 281.679 230.867,282.356 231.200,282.659 231.200 C 282.963 231.200,283.523 231.359,283.905 231.553 C 284.542 231.877,285.051 232.093,287.700 233.164 C 288.195 233.364,288.926 233.633,289.325 233.761 C 289.724 233.889,289.959 234.143,289.846 234.325 C 289.734 234.507,290.202 234.573,290.886 234.473 C 291.661 234.359,292.294 234.499,292.565 234.845 C 292.804 235.150,293.720 235.442,294.600 235.493 C 298.771 235.736,300.866 236.107,301.070 236.639 C 301.396 237.488,308.800 237.451,308.800 236.600 C 308.800 236.270,308.966 236.000,309.169 236.000 C 309.372 236.000,310.092 235.446,310.769 234.769 C 313.969 231.569,311.276 226.619,306.237 226.440 C 304.897 226.393,303.661 226.216,303.491 226.048 C 303.321 225.880,303.141 214.508,303.091 200.777 C 303.011 178.919,302.925 175.804,302.400 175.758 C 302.070 175.729,301.080 175.817,300.200 175.953 M213.344 195.200 C 213.344 197.290,213.412 198.145,213.494 197.100 C 213.576 196.055,213.576 194.345,213.494 193.300 C 213.412 192.255,213.344 193.110,213.344 195.200 M287.882 197.700 C 287.787 198.195,287.709 197.790,287.709 196.800 C 287.709 195.810,287.787 195.405,287.882 195.900 C 287.978 196.395,287.978 197.205,287.882 197.700 M213.293 203.200 C 213.293 203.970,213.375 204.285,213.476 203.900 C 213.576 203.515,213.576 202.885,213.476 202.500 C 213.375 202.115,213.293 202.430,213.293 203.200 M287.883 214.095 C 287.787 214.593,287.705 214.280,287.701 213.400 C 287.696 212.520,287.775 212.113,287.875 212.495 C 287.975 212.878,287.979 213.598,287.883 214.095 M213.314 215.800 C 213.317 216.900,213.395 217.303,213.487 216.695 C 213.579 216.086,213.577 215.186,213.482 214.695 C 213.387 214.203,213.311 214.700,213.314 215.800 " stroke="none" fill="#f5b4b5" fill-rule="evenodd"></path><path id="path2" d="M104.600 163.200 C 104.464 163.420,104.081 163.600,103.748 163.600 C 101.719 163.600,100.354 168.645,101.584 171.600 C 102.288 173.292,102.933 174.000,103.771 174.000 C 104.117 174.000,104.400 174.180,104.400 174.400 C 104.400 174.620,104.850 174.800,105.400 174.800 C 106.866 174.800,106.623 173.837,104.996 173.198 C 101.030 171.642,101.566 165.088,105.731 164.218 C 108.190 163.705,116.381 163.773,116.587 164.309 C 116.731 164.686,117.329 164.823,118.469 164.741 C 119.526 164.664,120.200 164.800,120.303 165.110 C 120.393 165.380,121.071 165.600,121.810 165.600 C 122.548 165.600,123.264 165.780,123.400 166.000 C 123.536 166.220,124.166 166.400,124.800 166.400 C 125.434 166.400,126.064 166.580,126.200 166.800 C 126.336 167.020,126.797 167.200,127.224 167.200 C 127.651 167.200,128.000 167.380,128.000 167.600 C 128.000 167.820,128.272 168.000,128.605 168.000 C 129.251 168.000,129.886 168.271,131.800 169.364 C 132.460 169.741,133.315 170.149,133.700 170.271 C 134.085 170.393,134.400 170.630,134.400 170.798 C 134.400 170.966,134.940 171.327,135.600 171.600 C 136.260 171.873,136.800 172.255,136.800 172.449 C 136.800 172.642,137.025 172.803,137.300 172.807 C 138.556 172.826,142.810 176.392,148.999 182.615 C 152.041 185.674,156.000 190.100,156.000 190.441 C 156.000 190.585,156.270 190.926,156.600 191.200 C 157.092 191.609,157.200 191.579,157.200 191.032 C 157.200 190.666,157.558 189.982,157.996 189.512 C 158.433 189.043,158.679 188.555,158.541 188.429 C 158.403 188.303,158.210 188.425,158.112 188.700 C 157.655 189.981,154.811 187.836,152.411 184.400 C 151.292 182.798,146.396 178.000,145.880 178.000 C 145.692 178.000,144.846 177.280,144.000 176.400 C 143.154 175.520,142.258 174.800,142.008 174.800 C 141.758 174.800,141.681 174.592,141.838 174.338 C 142.005 174.069,141.949 173.984,141.704 174.136 C 141.473 174.279,141.181 174.126,141.054 173.798 C 140.928 173.469,140.549 173.200,140.213 173.200 C 139.876 173.200,139.600 173.050,139.600 172.868 C 139.600 172.685,139.105 172.280,138.500 171.968 C 137.895 171.655,137.051 171.085,136.625 170.700 C 136.198 170.315,135.613 170.000,135.325 170.000 C 135.036 170.000,134.800 169.820,134.800 169.600 C 134.800 169.380,134.440 169.200,134.000 169.200 C 133.560 169.200,133.199 169.065,133.197 168.900 C 133.193 168.541,131.256 167.600,130.520 167.600 C 130.234 167.600,130.000 167.420,130.000 167.200 C 130.000 166.980,129.651 166.800,129.224 166.800 C 128.797 166.800,128.336 166.620,128.200 166.400 C 128.064 166.180,127.513 166.000,126.976 166.000 C 126.439 166.000,126.000 165.820,126.000 165.600 C 126.000 165.380,125.460 165.200,124.800 165.200 C 124.140 165.200,123.600 165.020,123.600 164.800 C 123.600 164.580,122.880 164.400,122.000 164.400 C 121.120 164.400,120.400 164.260,120.400 164.088 C 120.400 163.111,105.183 162.256,104.600 163.200 M199.000 163.200 C 198.864 163.420,199.023 163.600,199.353 163.600 C 199.683 163.600,200.064 163.420,200.200 163.200 C 200.336 162.980,200.177 162.800,199.847 162.800 C 199.517 162.800,199.136 162.980,199.000 163.200 M298.628 163.155 C 298.261 163.748,299.987 163.989,304.650 163.995 L 309.099 164.000 310.550 165.328 C 313.255 167.806,312.082 173.179,308.728 173.673 C 307.446 173.861,307.316 174.800,308.572 174.800 C 310.258 174.800,311.818 173.743,312.719 171.990 C 313.426 170.617,313.558 166.321,312.900 166.101 C 312.625 166.009,312.400 165.665,312.400 165.338 C 312.400 164.568,311.427 163.600,310.652 163.600 C 310.319 163.600,309.936 163.420,309.800 163.200 C 309.492 162.701,298.935 162.658,298.628 163.155 M294.998 164.003 C 294.861 164.224,295.018 164.509,295.346 164.634 C 296.238 164.977,297.715 164.668,297.902 164.100 C 298.104 163.487,295.374 163.396,294.998 164.003 M291.400 164.800 C 291.264 165.020,290.533 165.200,289.776 165.200 C 289.019 165.200,288.400 165.368,288.400 165.573 C 288.400 166.231,289.940 166.460,290.885 165.942 C 291.388 165.666,292.175 165.485,292.634 165.540 C 293.093 165.595,293.700 165.361,293.983 165.020 C 294.432 164.480,294.315 164.400,293.073 164.400 C 292.289 164.400,291.536 164.580,291.400 164.800 M286.892 166.475 C 287.139 167.217,288.000 167.340,288.000 166.633 C 288.000 166.285,287.715 166.000,287.367 166.000 C 287.018 166.000,286.805 166.214,286.892 166.475 M284.400 167.200 C 284.400 167.420,284.040 167.600,283.600 167.600 C 283.160 167.600,282.800 167.780,282.800 168.000 C 282.800 168.220,282.440 168.400,282.000 168.400 C 281.560 168.400,281.200 168.580,281.200 168.800 C 281.200 169.020,280.922 169.200,280.583 169.200 C 280.244 169.200,279.590 169.551,279.129 169.980 C 278.669 170.409,277.727 171.028,277.036 171.356 C 276.345 171.684,275.245 172.413,274.590 172.975 C 273.936 173.538,273.261 173.999,273.091 174.000 C 272.599 174.000,268.301 178.434,268.550 178.683 C 268.847 178.980,270.199 178.037,272.351 176.032 C 273.313 175.134,274.348 174.400,274.651 174.400 C 274.953 174.400,275.200 174.220,275.200 174.000 C 275.200 173.780,275.388 173.600,275.617 173.600 C 275.846 173.600,276.389 173.269,276.823 172.864 C 277.258 172.459,278.100 171.874,278.695 171.564 C 279.289 171.254,280.096 170.685,280.488 170.300 C 280.880 169.915,281.465 169.600,281.788 169.600 C 282.111 169.600,283.017 169.240,283.800 168.800 C 284.583 168.360,285.489 168.000,285.812 168.000 C 286.135 168.000,286.400 167.730,286.400 167.400 C 286.400 167.027,286.022 166.800,285.400 166.800 C 284.850 166.800,284.400 166.980,284.400 167.200 M172.229 174.629 C 171.805 174.938,171.536 175.269,171.630 175.363 C 171.724 175.457,172.148 175.281,172.571 174.971 C 172.995 174.662,173.264 174.331,173.170 174.237 C 173.076 174.143,172.652 174.319,172.229 174.629 M107.600 174.785 C 106.660 175.072,106.648 175.108,107.400 175.394 C 107.840 175.562,108.604 176.171,109.098 176.749 L 109.996 177.800 109.998 176.733 C 109.999 176.146,110.109 175.381,110.243 175.033 C 110.511 174.333,109.417 174.231,107.600 174.785 M303.200 174.757 C 303.200 174.954,303.470 175.218,303.800 175.345 C 304.130 175.471,304.406 175.896,304.413 176.287 C 304.425 176.965,304.452 176.965,304.957 176.300 C 305.249 175.915,305.773 175.600,306.120 175.600 C 307.316 175.600,307.186 174.897,305.944 174.649 C 304.199 174.300,303.200 174.339,303.200 174.757 M203.884 175.280 C 203.607 175.456,204.033 175.590,204.876 175.594 C 205.688 175.597,206.466 175.416,206.605 175.191 C 206.895 174.722,204.646 174.796,203.884 175.280 M207.807 175.212 C 208.101 175.688,209.874 175.727,210.160 175.264 C 210.274 175.080,209.738 174.905,208.967 174.876 C 208.152 174.845,207.667 174.985,207.807 175.212 M297.200 175.061 C 296.870 175.170,296.240 175.419,295.800 175.615 C 295.360 175.811,294.460 176.023,293.800 176.086 C 293.140 176.149,292.636 176.398,292.680 176.641 C 292.728 176.903,292.364 177.006,291.780 176.894 C 291.213 176.786,290.800 176.895,290.800 177.153 C 290.800 177.399,290.485 177.606,290.100 177.613 C 288.587 177.640,287.964 178.579,288.349 180.248 L 288.708 181.800 289.001 180.515 C 289.308 179.169,290.658 178.000,291.906 178.000 C 292.310 178.000,292.811 177.843,293.020 177.652 C 293.657 177.069,296.271 176.831,296.753 177.313 C 297.082 177.642,297.200 177.540,297.200 176.923 C 297.200 176.462,297.470 175.982,297.800 175.855 C 298.130 175.729,298.400 175.439,298.400 175.213 C 298.400 174.774,298.162 174.744,297.200 175.061 M116.255 175.800 C 116.382 176.130,116.666 176.400,116.886 176.400 C 117.122 176.400,117.176 176.853,117.017 177.500 C 116.772 178.497,116.798 178.532,117.292 177.868 C 118.413 176.360,124.400 178.188,124.400 180.038 C 124.400 180.431,124.580 180.864,124.800 181.000 C 125.020 181.136,125.200 180.877,125.200 180.424 C 125.200 179.971,125.455 179.600,125.767 179.600 C 126.601 179.600,126.768 178.675,126.035 178.113 C 125.686 177.845,125.006 177.620,124.524 177.613 C 124.042 177.606,123.526 177.404,123.378 177.165 C 123.231 176.926,122.782 176.816,122.381 176.921 C 121.979 177.026,121.556 176.862,121.438 176.556 C 121.321 176.250,120.690 176.000,120.036 176.000 C 119.382 176.000,118.736 175.820,118.600 175.600 C 118.177 174.915,115.988 175.102,116.255 175.800 M194.628 176.754 C 194.508 176.949,194.857 177.194,195.405 177.299 C 196.071 177.426,196.400 177.309,196.400 176.945 C 196.400 176.344,194.976 176.191,194.628 176.754 M265.009 181.191 C 263.698 182.516,262.789 183.600,262.989 183.600 C 263.189 183.600,263.021 183.843,262.616 184.139 C 262.040 184.560,261.993 184.749,262.401 185.001 C 262.746 185.214,262.827 185.167,262.638 184.862 C 262.481 184.608,262.535 184.400,262.758 184.400 C 263.208 184.400,265.200 182.519,265.200 182.094 C 265.200 181.946,265.762 181.345,266.449 180.758 C 267.136 180.172,267.629 179.487,267.546 179.237 C 267.462 178.986,266.321 179.865,265.009 181.191 M228.400 180.597 C 228.400 180.708,228.760 181.160,229.200 181.600 C 229.686 182.086,230.000 182.203,230.000 181.896 C 230.000 181.619,229.640 181.168,229.200 180.893 C 228.760 180.618,228.400 180.485,228.400 180.597 M131.600 182.011 C 131.600 182.524,135.045 186.000,135.554 186.000 C 136.050 186.000,143.600 193.561,143.600 194.058 C 143.600 194.270,144.680 195.504,146.000 196.800 C 147.320 198.096,148.400 199.486,148.400 199.891 C 148.400 200.386,148.726 200.653,149.400 200.708 C 150.892 200.832,150.639 199.999,148.500 197.744 C 147.455 196.642,146.067 195.034,145.417 194.170 C 143.824 192.057,135.607 184.000,135.045 184.000 C 134.799 184.000,134.088 183.460,133.465 182.800 C 132.309 181.576,131.600 181.275,131.600 182.011 M279.196 184.087 C 272.189 189.966,262.816 200.400,264.542 200.400 C 264.840 200.400,265.558 200.972,266.137 201.671 C 266.717 202.371,267.312 202.822,267.459 202.674 C 267.607 202.526,267.339 202.068,266.864 201.656 C 265.501 200.473,265.805 199.378,268.187 196.887 C 269.391 195.629,271.125 193.700,272.043 192.600 C 273.622 190.706,276.302 188.279,278.585 186.675 C 279.152 186.276,279.534 185.817,279.434 185.655 C 279.334 185.493,279.593 185.147,280.010 184.887 C 280.631 184.499,280.841 184.539,281.172 185.107 C 281.528 185.717,281.577 185.690,281.588 184.874 C 281.595 184.364,281.792 183.589,282.026 183.152 C 282.968 181.392,282.043 181.698,279.196 184.087 M116.951 188.800 C 116.951 191.330,117.016 192.365,117.096 191.100 C 117.175 189.835,117.175 187.765,117.096 186.500 C 117.016 185.235,116.951 186.270,116.951 188.800 M259.300 187.422 C 257.303 189.478,256.040 192.661,257.800 191.200 C 258.130 190.926,258.400 190.464,258.400 190.174 C 258.400 189.883,258.717 189.410,259.104 189.123 C 260.052 188.419,262.000 186.029,262.000 185.569 C 262.000 184.855,261.380 185.280,259.300 187.422 M236.574 194.400 C 236.574 196.380,236.685 198.000,236.820 198.000 C 236.956 198.000,237.067 196.380,237.067 194.400 C 237.067 192.420,236.956 190.800,236.820 190.800 C 236.685 190.800,236.574 192.420,236.574 194.400 M243.251 193.893 C 244.231 195.129,245.645 196.489,245.795 196.338 C 245.990 196.144,243.359 193.200,242.990 193.200 C 242.832 193.200,242.949 193.512,243.251 193.893 M168.523 195.897 C 167.609 197.025,167.575 197.704,168.481 196.746 C 169.559 195.605,170.086 194.800,169.749 194.808 C 169.557 194.812,169.005 195.302,168.523 195.897 M165.800 199.200 C 165.664 199.420,165.203 199.600,164.776 199.600 C 163.304 199.600,164.546 201.535,169.000 206.181 C 169.880 207.099,171.626 208.964,172.879 210.325 C 174.132 211.686,175.333 212.800,175.548 212.800 C 175.762 212.800,176.756 213.736,177.757 214.879 C 179.899 217.328,179.937 217.313,179.607 214.200 C 179.390 212.145,179.307 211.958,179.033 212.900 C 178.627 214.296,178.622 214.295,176.869 212.478 C 176.061 211.640,175.085 210.836,174.700 210.690 C 174.315 210.544,174.000 210.149,174.000 209.813 C 174.000 209.476,173.724 209.200,173.387 209.200 C 173.051 209.200,172.663 208.907,172.525 208.550 C 172.388 208.192,171.143 206.721,169.757 205.280 C 168.372 203.839,167.348 202.484,167.481 202.268 C 167.616 202.050,167.519 202.003,167.262 202.162 C 166.988 202.331,166.800 202.193,166.800 201.824 C 166.800 201.481,166.614 201.200,166.386 201.200 C 166.100 201.200,166.100 200.960,166.386 200.426 C 167.084 199.122,166.545 197.995,165.800 199.200 M236.600 200.800 C 236.600 201.460,236.735 202.000,236.900 202.000 C 237.065 202.000,237.200 201.460,237.200 200.800 C 237.200 200.140,237.065 199.600,236.900 199.600 C 236.735 199.600,236.600 200.140,236.600 200.800 M249.700 200.012 C 249.205 200.211,248.796 200.245,248.791 200.087 C 248.786 199.929,248.475 200.430,248.099 201.200 C 247.724 201.970,246.584 203.438,245.566 204.461 C 244.548 205.485,243.605 206.610,243.470 206.961 C 243.335 207.313,243.033 207.600,242.799 207.600 C 242.565 207.600,241.366 208.680,240.136 210.000 C 238.905 211.320,237.621 212.400,237.282 212.400 C 236.944 212.400,236.779 212.513,236.917 212.651 C 237.055 212.789,236.905 213.410,236.584 214.031 C 236.263 214.652,236.000 215.326,236.000 215.529 C 236.000 216.032,243.722 208.359,246.200 205.393 C 247.300 204.077,248.335 202.940,248.500 202.867 C 248.665 202.793,248.798 202.523,248.796 202.267 C 248.794 202.010,249.379 201.310,250.096 200.711 C 251.429 199.597,251.300 199.369,249.700 200.012 M281.293 201.600 C 281.293 202.370,281.375 202.685,281.476 202.300 C 281.576 201.915,281.576 201.285,281.476 200.900 C 281.375 200.515,281.293 200.830,281.293 201.600 M116.928 204.400 C 116.928 205.830,117.001 206.415,117.089 205.700 C 117.178 204.985,117.178 203.815,117.089 203.100 C 117.001 202.385,116.928 202.970,116.928 204.400 M236.600 205.200 C 236.600 206.080,236.735 206.800,236.900 206.800 C 237.065 206.800,237.200 206.080,237.200 205.200 C 237.200 204.320,237.065 203.600,236.900 203.600 C 236.735 203.600,236.600 204.320,236.600 205.200 M269.613 205.786 C 270.711 207.257,276.860 213.273,277.060 213.073 C 277.170 212.963,275.527 211.192,273.408 209.137 C 269.082 204.939,268.785 204.677,269.613 205.786 M142.602 207.598 C 142.203 208.039,142.007 208.400,142.167 208.400 C 142.588 208.400,143.728 207.195,143.512 206.979 C 143.411 206.878,143.002 207.156,142.602 207.598 M236.600 209.600 C 236.600 210.700,236.735 211.600,236.900 211.600 C 237.065 211.600,237.200 210.700,237.200 209.600 C 237.200 208.500,237.065 207.600,236.900 207.600 C 236.735 207.600,236.600 208.500,236.600 209.600 M156.892 209.800 C 156.937 210.350,157.121 210.800,157.301 210.800 C 157.763 210.800,160.400 213.493,160.400 213.965 C 160.400 214.459,170.400 224.400,170.897 224.400 C 171.098 224.400,171.976 225.120,172.847 226.000 C 173.718 226.880,174.654 227.600,174.927 227.600 C 175.200 227.600,175.683 227.960,176.000 228.400 C 176.317 228.840,176.857 229.200,177.200 229.200 C 177.543 229.200,178.083 229.560,178.400 230.000 C 178.717 230.440,179.297 230.800,179.688 230.800 C 180.080 230.800,180.400 230.980,180.400 231.200 C 180.400 231.420,180.634 231.600,180.920 231.600 C 181.656 231.600,183.593 232.541,183.597 232.900 C 183.599 233.065,183.960 233.200,184.400 233.200 C 184.840 233.200,185.200 233.380,185.200 233.600 C 185.200 233.820,185.639 234.000,186.176 234.000 C 186.713 234.000,187.264 234.180,187.400 234.400 C 187.726 234.928,189.600 234.917,189.600 234.387 C 189.600 234.161,189.285 233.874,188.900 233.751 C 187.984 233.458,186.377 232.797,185.505 232.353 C 185.123 232.159,184.538 232.000,184.205 232.000 C 183.872 232.000,183.600 231.864,183.600 231.698 C 183.600 231.531,183.015 231.142,182.300 230.832 C 181.585 230.523,180.248 229.759,179.328 229.135 C 178.408 228.511,177.463 228.000,177.228 228.000 C 176.993 228.000,176.800 227.834,176.800 227.632 C 176.800 227.429,176.260 227.145,175.600 227.000 C 174.940 226.855,174.400 226.513,174.400 226.240 C 174.400 225.657,173.025 224.407,170.910 223.065 C 170.079 222.538,168.405 221.048,167.189 219.754 C 165.973 218.459,164.218 216.718,163.289 215.884 C 162.360 215.050,161.597 214.150,161.594 213.884 C 161.587 213.353,157.560 208.800,157.097 208.800 C 156.938 208.800,156.846 209.250,156.892 209.800 M255.763 210.100 C 255.121 210.815,254.258 211.925,253.845 212.567 C 253.432 213.209,250.868 216.017,248.147 218.808 C 243.357 223.720,242.799 224.400,243.556 224.400 C 243.951 224.400,254.800 213.730,254.800 213.342 C 254.800 213.207,255.430 212.400,256.200 211.547 C 257.517 210.089,258.017 208.800,257.264 208.800 C 257.080 208.800,256.404 209.385,255.763 210.100 M116.940 214.000 C 116.940 215.870,117.009 216.635,117.093 215.700 C 117.177 214.765,117.177 213.235,117.093 212.300 C 117.009 211.365,116.940 212.130,116.940 214.000 M137.599 212.541 C 135.435 214.556,134.018 216.322,135.786 214.800 C 137.761 213.101,139.687 211.154,139.539 211.006 C 139.462 210.929,138.589 211.619,137.599 212.541 M153.270 214.422 C 152.357 215.578,152.401 216.085,153.329 215.098 C 154.360 214.001,154.880 213.201,154.549 213.222 C 154.357 213.234,153.781 213.774,153.270 214.422 M229.200 219.200 C 229.200 219.420,228.840 219.600,228.400 219.600 C 227.960 219.600,227.600 219.780,227.600 220.000 C 227.600 220.220,227.225 220.400,226.767 220.400 C 226.278 220.400,226.002 220.607,226.100 220.900 C 226.329 221.587,227.258 221.570,228.100 220.863 C 228.485 220.540,228.800 220.398,228.800 220.547 C 228.800 220.696,229.261 220.517,229.824 220.148 C 230.596 219.642,230.719 219.395,230.324 219.144 C 229.617 218.696,229.200 218.717,229.200 219.200 M185.790 219.690 C 185.527 220.367,186.371 221.600,187.096 221.600 C 187.291 221.600,188.195 221.960,189.106 222.400 C 190.016 222.840,190.935 223.200,191.147 223.200 C 191.360 223.200,191.603 223.408,191.688 223.663 C 191.785 223.956,192.240 224.027,192.921 223.856 C 194.239 223.525,194.348 222.800,193.080 222.800 C 192.026 222.800,190.008 221.947,190.003 221.500 C 190.001 221.335,189.640 221.200,189.200 221.200 C 188.760 221.200,188.400 221.020,188.400 220.800 C 188.400 220.580,188.105 220.400,187.744 220.400 C 187.383 220.400,186.856 220.085,186.573 219.700 C 186.086 219.039,186.042 219.039,185.790 219.690 M224.400 221.502 C 224.400 222.049,221.980 222.889,220.965 222.696 C 220.419 222.591,220.070 222.604,220.190 222.723 C 220.309 222.843,220.014 223.359,219.534 223.870 C 218.818 224.632,218.777 224.800,219.307 224.800 C 219.662 224.800,220.064 224.620,220.200 224.400 C 220.336 224.180,220.780 224.000,221.187 224.000 C 222.105 224.000,226.000 222.012,226.000 221.543 C 226.000 221.354,225.640 221.200,225.200 221.200 C 224.760 221.200,224.400 221.336,224.400 221.502 M267.600 221.429 C 267.600 221.698,268.290 222.370,269.402 223.185 C 269.841 223.506,269.671 223.191,269.025 222.485 C 267.840 221.189,267.600 221.011,267.600 221.429 M116.695 223.055 C 116.216 223.815,117.431 224.544,118.279 224.004 C 118.933 223.588,118.918 223.562,118.121 223.730 C 117.526 223.854,117.200 223.702,117.112 223.257 C 117.025 222.819,116.886 222.752,116.695 223.055 M195.300 223.395 C 194.805 223.612,194.400 223.997,194.400 224.249 C 194.400 224.791,196.741 225.220,197.041 224.733 C 197.155 224.550,197.069 224.400,196.851 224.400 C 196.634 224.400,196.398 224.085,196.328 223.700 C 196.224 223.132,196.030 223.075,195.300 223.395 M241.200 224.728 C 240.870 225.123,239.970 225.877,239.200 226.403 C 238.430 226.930,237.698 227.508,237.573 227.687 C 237.448 227.866,236.728 228.347,235.973 228.756 C 230.935 231.486,229.890 232.000,229.376 232.000 C 229.059 232.000,228.800 232.180,228.800 232.400 C 228.800 232.620,228.350 232.800,227.800 232.800 C 227.250 232.800,226.800 232.968,226.800 233.173 C 226.800 233.379,226.319 233.604,225.731 233.673 C 224.189 233.856,224.032 234.800,225.543 234.800 C 226.208 234.800,226.864 234.620,227.000 234.400 C 227.136 234.180,227.687 234.000,228.224 234.000 C 228.761 234.000,229.200 233.820,229.200 233.600 C 229.200 233.380,229.434 233.200,229.720 233.200 C 230.456 233.200,232.393 232.259,232.397 231.900 C 232.399 231.735,232.760 231.600,233.200 231.600 C 233.640 231.600,234.000 231.420,234.000 231.200 C 234.000 230.980,234.317 230.800,234.704 230.800 C 235.091 230.800,235.632 230.440,235.907 230.000 C 236.182 229.560,236.683 229.200,237.022 229.200 C 237.360 229.200,238.090 228.747,238.644 228.192 C 239.198 227.638,239.848 227.306,240.088 227.454 C 240.349 227.615,240.409 227.538,240.238 227.262 C 240.081 227.008,240.152 226.800,240.395 226.800 C 240.955 226.800,242.800 224.974,242.800 224.418 C 242.800 223.758,241.859 223.940,241.200 224.728 M203.600 224.720 C 203.600 224.984,203.315 225.200,202.967 225.200 C 202.618 225.200,202.408 225.425,202.500 225.700 C 202.765 226.497,209.975 226.609,211.000 225.832 C 211.734 225.275,211.502 225.224,208.180 225.213 C 205.914 225.205,204.380 225.020,204.080 224.720 C 203.707 224.347,203.600 224.347,203.600 224.720 M190.267 234.667 C 189.693 235.240,190.053 235.600,191.200 235.600 C 191.860 235.600,192.400 235.780,192.400 236.000 C 192.400 236.220,193.300 236.400,194.400 236.400 C 195.500 236.400,196.400 236.564,196.400 236.764 C 196.400 237.522,211.409 238.351,212.127 237.633 C 212.438 237.322,210.967 237.200,206.929 237.200 C 202.571 237.200,201.192 237.072,200.830 236.636 C 200.394 236.111,198.007 235.697,194.200 235.488 C 193.320 235.440,192.456 235.175,192.280 234.900 C 191.939 234.367,190.709 234.224,190.267 234.667 M221.814 234.777 C 221.670 235.010,221.128 235.200,220.609 235.200 C 220.090 235.200,219.381 235.309,219.033 235.443 C 217.817 235.909,218.415 236.400,220.200 236.400 C 221.190 236.400,222.000 236.220,222.000 236.000 C 222.000 235.780,222.555 235.600,223.233 235.600 C 224.041 235.600,224.410 235.427,224.302 235.100 C 224.094 234.465,222.162 234.215,221.814 234.777 M213.776 236.587 C 213.067 237.124,213.215 237.176,215.500 237.187 C 217.880 237.199,218.734 236.767,217.367 236.243 C 216.262 235.819,214.579 235.980,213.776 236.587 " stroke="none" fill="#d3cff0" fill-rule="evenodd"></path><path id="path3" d="M200.298 163.036 C 199.517 163.817,200.549 163.966,207.900 164.135 C 215.771 164.316,218.281 164.539,219.800 165.195 C 220.640 165.557,222.123 165.912,224.304 166.273 C 225.021 166.391,225.706 166.649,225.827 166.844 C 225.948 167.040,226.397 167.200,226.824 167.200 C 227.251 167.200,227.600 167.380,227.600 167.600 C 227.600 167.820,227.789 168.000,228.019 168.000 C 228.250 168.000,229.184 168.360,230.094 168.800 C 231.005 169.240,231.986 169.600,232.275 169.600 C 232.564 169.600,232.800 169.780,232.800 170.000 C 232.800 170.220,233.094 170.400,233.453 170.400 C 233.812 170.400,234.399 170.715,234.757 171.100 C 235.116 171.485,235.812 172.025,236.304 172.300 C 238.544 173.550,239.018 173.861,240.111 174.800 C 240.752 175.350,241.394 175.805,241.538 175.811 C 242.112 175.835,254.980 189.182,256.011 190.823 C 256.126 191.007,256.486 190.987,256.811 190.779 C 257.183 190.539,257.252 190.290,256.998 190.100 C 256.776 189.935,256.113 189.153,255.524 188.361 C 254.031 186.356,244.500 176.794,242.800 175.596 C 242.030 175.053,240.878 174.112,240.241 173.504 C 239.603 172.897,238.838 172.400,238.541 172.400 C 238.243 172.400,238.000 172.220,238.000 172.000 C 238.000 171.780,237.764 171.600,237.475 171.600 C 237.187 171.600,236.564 171.240,236.092 170.800 C 235.620 170.360,234.956 170.000,234.617 170.000 C 234.278 170.000,234.000 169.850,234.000 169.668 C 234.000 169.332,233.797 169.221,230.200 167.600 C 227.458 166.364,226.844 166.125,225.000 165.577 C 224.120 165.316,223.087 164.944,222.705 164.751 C 222.323 164.558,221.504 164.400,220.885 164.400 C 220.266 164.400,219.561 164.201,219.317 163.957 C 219.073 163.713,218.050 163.579,217.038 163.660 C 216.026 163.740,215.142 163.625,215.068 163.403 C 214.911 162.931,200.754 162.579,200.298 163.036 M195.414 163.977 C 195.270 164.210,194.555 164.400,193.825 164.400 C 193.095 164.400,192.295 164.645,192.046 164.944 C 191.798 165.243,191.167 165.406,190.644 165.306 C 190.122 165.206,189.572 165.322,189.423 165.562 C 189.275 165.803,188.724 166.000,188.200 166.000 C 187.676 166.000,187.136 166.180,187.000 166.400 C 186.864 166.620,186.403 166.800,185.976 166.800 C 185.549 166.800,185.200 167.070,185.200 167.400 C 185.200 168.239,186.539 168.148,188.090 167.201 C 188.811 166.762,189.794 166.402,190.276 166.401 C 190.758 166.401,191.264 166.220,191.400 166.000 C 191.536 165.780,192.231 165.600,192.944 165.600 C 193.657 165.600,194.411 165.432,194.620 165.227 C 194.829 165.021,195.720 164.796,196.600 164.727 C 197.480 164.657,198.200 164.420,198.200 164.200 C 198.200 163.650,195.738 163.454,195.414 163.977 M183.600 168.000 C 183.600 168.220,183.328 168.400,182.995 168.400 C 182.434 168.400,180.863 169.130,180.400 169.605 C 180.290 169.718,179.345 170.242,178.300 170.768 C 177.255 171.295,176.400 171.877,176.400 172.063 C 176.400 172.248,176.157 172.400,175.859 172.400 C 175.562 172.400,174.797 172.897,174.159 173.504 C 173.522 174.112,172.370 175.056,171.600 175.602 C 169.756 176.910,160.068 186.609,158.817 188.400 C 158.279 189.170,157.650 189.935,157.419 190.100 C 157.141 190.299,157.190 190.522,157.563 190.763 C 157.973 191.027,158.362 190.781,158.990 189.863 C 160.950 186.998,175.096 173.600,176.160 173.600 C 176.283 173.600,177.332 172.881,178.492 172.002 C 179.651 171.123,180.825 170.403,181.100 170.402 C 181.375 170.401,181.600 170.220,181.600 170.000 C 181.600 169.780,181.834 169.600,182.120 169.600 C 182.406 169.600,183.125 169.375,183.717 169.100 C 184.874 168.563,185.184 167.600,184.200 167.600 C 183.870 167.600,183.600 167.780,183.600 168.000 M202.400 199.167 C 202.400 212.789,202.291 224.219,202.157 224.567 C 201.983 225.021,202.153 225.200,202.757 225.200 L 203.600 225.200 203.600 200.200 C 203.600 183.833,203.738 175.183,204.000 175.150 C 204.220 175.123,204.565 175.078,204.767 175.050 C 205.981 174.884,205.459 174.400,204.067 174.400 L 202.400 174.400 202.400 199.167 M209.403 174.795 C 209.258 175.030,209.437 175.084,209.845 174.927 C 210.281 174.760,210.435 174.820,210.267 175.092 C 210.098 175.365,210.664 175.572,211.836 175.665 C 213.671 175.811,214.264 175.550,213.800 174.800 C 213.480 174.282,209.723 174.278,209.403 174.795 M195.400 175.600 C 195.264 175.820,194.711 176.000,194.171 176.000 C 193.631 176.000,192.832 176.180,192.395 176.400 C 191.958 176.620,191.242 176.980,190.805 177.200 C 190.368 177.420,189.693 177.604,189.305 177.609 C 188.917 177.614,188.150 177.970,187.600 178.400 C 187.050 178.830,186.378 179.186,186.107 179.191 C 185.206 179.207,185.199 218.771,186.100 219.254 C 186.762 219.608,186.800 218.551,186.800 199.614 C 186.800 179.970,186.815 179.600,187.588 179.600 C 188.021 179.600,189.017 179.240,189.800 178.800 C 190.583 178.360,191.489 178.000,191.812 178.000 C 192.135 178.000,192.400 177.820,192.400 177.600 C 192.400 177.380,192.839 177.200,193.376 177.200 C 193.913 177.200,194.464 177.020,194.600 176.800 C 194.736 176.580,195.197 176.400,195.624 176.400 C 196.384 176.400,196.400 176.910,196.400 200.400 C 196.400 221.142,196.479 224.400,196.982 224.400 C 197.718 224.400,197.924 177.352,197.194 175.989 C 196.743 175.146,195.806 174.943,195.400 175.600 M303.097 200.467 C 303.150 214.375,303.330 225.889,303.497 226.054 C 303.664 226.219,304.897 226.393,306.237 226.440 C 311.276 226.619,313.969 231.569,310.769 234.769 C 310.092 235.446,309.372 236.000,309.169 236.000 C 308.966 236.000,308.800 236.270,308.800 236.600 C 308.800 236.930,309.126 237.200,309.525 237.200 C 310.325 237.200,312.400 235.235,312.400 234.478 C 312.400 234.215,312.580 234.000,312.800 234.000 C 313.374 234.000,313.294 229.755,312.700 228.710 C 311.445 226.504,309.102 225.200,306.391 225.200 L 304.406 225.200 304.303 200.305 C 304.213 178.550,304.124 175.396,303.600 175.295 C 303.071 175.193,303.011 178.170,303.097 200.467 M115.943 176.715 C 115.457 180.400,116.048 225.600,116.583 225.600 C 117.511 225.600,117.727 224.804,117.013 224.015 C 116.554 223.507,116.486 223.194,116.793 223.004 C 117.113 222.807,117.092 222.547,116.719 222.088 C 116.434 221.735,116.380 221.554,116.600 221.685 C 117.219 222.054,117.181 176.748,116.561 176.115 C 116.192 175.737,116.055 175.870,115.943 176.715 M297.700 175.865 C 297.308 176.023,297.200 181.274,297.200 200.233 C 297.200 222.676,297.084 225.431,296.200 224.000 C 296.064 223.780,295.511 223.600,294.971 223.600 C 294.431 223.600,293.632 223.420,293.195 223.200 C 292.758 222.980,292.042 222.620,291.605 222.400 C 291.168 222.180,290.572 222.000,290.281 222.000 C 289.301 222.000,287.917 220.360,288.149 219.473 C 288.269 219.016,288.172 218.407,287.934 218.121 C 287.623 217.746,287.628 217.600,287.951 217.600 C 288.198 217.600,288.400 217.114,288.400 216.520 C 288.400 214.669,287.571 216.087,287.513 218.037 C 287.406 221.644,289.589 224.180,292.750 224.121 C 293.108 224.115,293.580 224.248,293.800 224.417 C 294.644 225.067,297.981 225.316,298.193 224.745 C 298.457 224.032,298.661 175.590,298.400 175.631 C 298.290 175.649,297.975 175.754,297.700 175.865 M219.200 199.781 C 219.200 218.712,219.304 223.632,219.700 223.500 C 220.266 223.312,220.364 218.966,220.386 193.100 C 220.398 179.715,220.489 177.200,220.962 177.200 C 221.447 177.200,222.720 177.752,225.695 179.250 C 226.077 179.443,226.662 179.600,226.995 179.600 C 227.328 179.600,227.601 179.735,227.603 179.900 C 227.606 180.206,229.500 181.200,230.080 181.200 C 232.367 181.200,223.802 176.512,220.773 176.106 L 219.200 175.895 219.200 199.781 M213.216 179.300 C 213.198 182.293,213.769 182.939,214.120 180.323 C 214.263 179.252,214.143 178.276,213.788 177.623 C 213.266 176.663,213.231 176.767,213.216 179.300 M125.104 200.481 L 125.000 221.361 123.400 222.135 C 121.278 223.162,120.417 223.491,119.100 223.777 C 118.495 223.908,118.000 224.192,118.000 224.408 C 118.000 224.898,119.267 224.915,120.481 224.442 C 120.987 224.245,122.165 223.856,123.100 223.578 C 124.035 223.300,124.800 222.942,124.800 222.783 C 124.800 222.624,125.160 222.399,125.600 222.284 C 126.683 222.001,126.885 179.600,125.804 179.600 C 125.284 179.600,125.194 182.289,125.104 200.481 M287.400 180.000 C 286.756 180.277,286.731 180.349,287.271 180.372 C 287.640 180.387,288.024 180.715,288.124 181.100 C 288.237 181.531,288.325 181.377,288.354 180.700 C 288.379 180.095,288.355 179.613,288.300 179.628 C 288.245 179.644,287.840 179.811,287.400 180.000 M213.479 184.100 C 213.165 186.631,213.368 210.301,213.707 210.641 C 213.868 210.802,214.000 204.513,214.000 196.667 C 214.000 182.747,213.912 180.622,213.479 184.100 M131.200 200.600 L 131.200 218.400 132.141 218.400 C 132.658 218.400,133.603 217.902,134.241 217.292 C 134.878 216.683,135.802 215.903,136.294 215.559 C 138.012 214.356,143.600 209.074,143.615 208.639 C 143.623 208.397,144.793 206.968,146.215 205.461 C 147.637 203.955,148.800 202.560,148.800 202.361 C 148.800 202.163,149.154 202.000,149.587 202.000 C 150.104 202.000,150.300 201.804,150.157 201.431 C 149.812 200.533,148.800 200.334,148.507 201.107 C 148.363 201.488,147.560 202.461,146.722 203.269 C 145.885 204.076,145.200 204.917,145.200 205.136 C 145.200 205.725,135.273 215.600,134.681 215.600 C 134.404 215.600,133.917 215.960,133.600 216.400 C 133.283 216.840,132.883 217.200,132.712 217.200 C 132.540 217.200,132.400 209.460,132.400 200.000 C 132.400 184.978,132.324 182.800,131.800 182.800 C 131.276 182.800,131.200 185.044,131.200 200.600 M281.759 183.500 C 281.579 183.885,281.389 191.376,281.336 200.147 C 281.283 208.917,281.148 216.185,281.036 216.297 C 280.546 216.788,271.232 208.061,269.210 205.217 C 268.060 203.599,265.052 200.400,264.681 200.400 C 264.303 200.400,264.844 201.635,265.569 202.429 C 265.916 202.808,266.738 203.812,267.396 204.659 C 268.505 206.089,269.974 207.715,273.865 211.819 C 276.242 214.328,280.197 217.600,280.851 217.600 C 281.175 217.600,281.656 217.816,281.920 218.080 C 282.184 218.344,282.404 218.389,282.408 218.180 C 282.413 217.971,282.409 210.280,282.400 201.089 C 282.389 190.095,282.528 184.108,282.806 183.589 C 283.135 182.975,283.102 182.800,282.657 182.800 C 282.343 182.800,281.938 183.115,281.759 183.500 M175.775 186.900 C 173.871 188.715,172.063 190.344,171.757 190.520 C 171.450 190.696,171.200 190.998,171.200 191.190 C 171.200 191.383,169.675 193.129,167.811 195.070 C 164.565 198.452,163.815 199.615,164.900 199.587 C 165.619 199.569,166.488 198.803,167.607 197.200 C 168.655 195.700,178.929 185.200,179.349 185.200 C 179.487 185.200,179.600 192.124,179.600 200.586 C 179.600 214.830,179.652 216.000,180.300 216.347 C 180.966 216.703,181.255 185.931,180.603 184.100 C 180.233 183.061,179.133 183.699,175.775 186.900 M235.910 199.839 C 235.805 213.397,235.918 215.800,236.580 214.134 C 237.065 212.914,237.235 211.600,236.908 211.601 C 236.450 211.602,236.535 207.849,237.000 207.500 C 237.267 207.300,237.267 207.100,237.000 206.900 C 236.539 206.554,236.449 203.599,236.900 203.600 C 237.065 203.600,237.200 203.240,237.200 202.800 C 237.200 202.360,237.065 202.000,236.900 202.000 C 236.735 202.000,236.600 201.460,236.600 200.800 C 236.600 200.140,236.735 199.600,236.900 199.600 C 237.065 199.600,237.200 199.240,237.200 198.800 C 237.200 198.360,237.056 198.000,236.880 198.000 C 236.405 198.000,236.508 191.055,236.988 190.670 C 237.263 190.449,237.235 190.272,236.903 190.137 C 236.542 189.991,236.518 189.726,236.817 189.168 C 237.043 188.745,237.096 188.400,236.934 188.400 C 236.772 188.400,236.848 188.192,237.103 187.937 C 237.581 187.459,243.428 193.027,245.890 196.304 C 247.528 198.486,249.026 200.000,249.543 200.000 C 250.473 200.000,249.939 199.104,247.600 196.736 C 246.280 195.399,245.200 194.080,245.200 193.804 C 245.200 193.528,244.611 192.784,243.892 192.151 C 243.172 191.518,242.076 190.383,241.457 189.628 C 240.101 187.976,237.191 185.609,236.510 185.604 C 236.134 185.601,235.994 188.925,235.910 199.839 M287.843 186.233 C 287.423 187.326,287.559 190.684,287.995 190.000 C 288.320 189.488,288.494 185.600,288.191 185.600 C 288.133 185.600,287.976 185.885,287.843 186.233 M236.893 194.400 C 236.893 195.170,236.975 195.485,237.076 195.100 C 237.176 194.715,237.176 194.085,237.076 193.700 C 236.975 193.315,236.893 193.630,236.893 194.400 M287.709 196.800 C 287.709 197.790,287.787 198.195,287.882 197.700 C 287.978 197.205,287.978 196.395,287.882 195.900 C 287.787 195.405,287.709 195.810,287.709 196.800 M287.606 205.700 C 287.620 206.842,288.388 207.426,288.394 206.300 C 288.397 205.695,288.220 205.200,288.000 205.200 C 287.780 205.200,287.603 205.425,287.606 205.700 M257.453 209.805 C 257.306 210.190,258.055 211.304,259.511 212.862 C 264.858 218.589,272.533 225.999,273.120 226.001 C 273.274 226.001,274.030 226.541,274.800 227.200 C 275.570 227.859,276.343 228.399,276.517 228.399 C 276.691 228.400,277.220 228.760,277.692 229.200 C 278.644 230.086,279.200 230.224,279.200 229.571 C 279.200 229.122,278.594 228.475,277.543 227.800 C 274.757 226.012,273.405 224.981,271.792 223.413 C 270.766 222.416,269.808 221.600,269.662 221.600 C 269.355 221.600,262.091 214.162,261.200 212.936 C 259.021 209.936,257.796 208.912,257.453 209.805 M154.600 211.488 C 152.752 213.656,145.652 220.824,142.295 223.911 C 141.033 225.071,140.014 226.241,140.032 226.511 C 140.056 226.885,140.110 226.883,140.265 226.500 C 140.376 226.225,140.693 226.000,140.970 226.000 C 141.246 226.000,142.300 225.235,143.311 224.300 C 144.323 223.365,146.016 221.890,147.075 221.023 C 148.134 220.155,150.080 218.202,151.400 216.683 C 152.720 215.164,154.553 213.091,155.472 212.077 C 156.961 210.436,157.305 209.589,156.476 209.605 C 156.324 209.608,155.480 210.455,154.600 211.488 M213.389 216.362 C 213.395 219.201,213.535 221.440,213.700 221.338 C 214.099 221.092,214.088 211.200,213.689 211.200 C 213.518 211.200,213.383 213.523,213.389 216.362 M287.701 213.400 C 287.705 214.280,287.787 214.593,287.883 214.095 C 287.979 213.598,287.975 212.878,287.875 212.495 C 287.775 212.113,287.696 212.520,287.701 213.400 M213.492 223.042 C 213.331 223.202,213.200 223.609,213.200 223.947 C 213.200 224.397,213.318 224.442,213.645 224.115 C 213.890 223.870,214.021 223.463,213.937 223.210 C 213.852 222.957,213.652 222.881,213.492 223.042 M106.000 225.579 C 106.000 225.811,105.575 226.000,105.055 226.000 C 103.964 226.000,101.876 227.901,102.159 228.637 C 102.264 228.910,102.091 229.233,101.775 229.354 C 101.106 229.611,100.959 233.004,101.600 233.400 C 101.820 233.536,102.000 233.972,102.000 234.369 C 102.000 235.314,103.902 237.200,104.855 237.200 C 105.265 237.200,105.600 236.930,105.600 236.600 C 105.600 236.270,105.385 236.000,105.122 236.000 C 104.859 236.000,104.139 235.516,103.522 234.925 C 101.351 232.845,102.520 227.200,105.122 227.200 C 105.385 227.200,105.600 227.029,105.600 226.820 C 105.600 226.611,106.592 226.386,107.805 226.320 C 110.636 226.166,110.842 225.437,108.100 225.279 C 106.821 225.205,106.000 225.323,106.000 225.579 M138.069 227.239 C 137.780 227.700,137.630 228.163,137.733 228.267 C 138.046 228.580,139.600 227.445,139.600 226.904 C 139.600 226.108,138.644 226.317,138.069 227.239 M136.000 228.304 C 136.000 228.508,135.145 229.108,134.100 229.637 C 133.055 230.167,132.140 230.735,132.067 230.900 C 131.993 231.065,131.588 231.200,131.167 231.200 C 130.745 231.200,130.400 231.380,130.400 231.600 C 130.400 231.820,130.128 232.000,129.795 232.000 C 129.462 232.000,128.877 232.159,128.495 232.353 C 128.113 232.548,127.350 232.884,126.800 233.100 C 126.250 233.316,125.332 233.713,124.760 233.982 C 124.188 234.251,123.293 234.410,122.770 234.335 C 122.116 234.242,121.776 234.418,121.681 234.900 C 121.577 235.421,121.804 235.600,122.571 235.600 C 123.137 235.600,123.600 235.420,123.600 235.200 C 123.600 234.980,124.219 234.800,124.976 234.800 C 125.733 234.800,126.464 234.620,126.600 234.400 C 126.736 234.180,127.197 234.000,127.624 234.000 C 128.051 234.000,128.400 233.820,128.400 233.600 C 128.400 233.380,128.760 233.200,129.200 233.200 C 129.640 233.200,130.000 233.020,130.000 232.800 C 130.000 232.580,130.272 232.400,130.605 232.400 C 131.166 232.400,132.737 231.670,133.200 231.195 C 133.310 231.082,134.260 230.556,135.311 230.026 C 137.124 229.112,137.527 228.442,136.475 228.092 C 136.214 228.005,136.000 228.100,136.000 228.304 M279.788 230.020 C 279.640 230.258,279.583 230.486,279.660 230.527 C 279.737 230.567,280.205 230.825,280.700 231.100 C 281.195 231.375,281.960 231.780,282.400 232.000 C 282.840 232.220,283.558 232.580,283.995 232.800 C 284.432 233.020,285.062 233.200,285.395 233.200 C 285.728 233.200,286.000 233.380,286.000 233.600 C 286.000 233.820,286.349 234.000,286.776 234.000 C 287.203 234.000,287.664 234.180,287.800 234.400 C 288.121 234.919,289.480 234.917,289.802 234.397 C 289.939 234.176,289.724 233.889,289.325 233.761 C 288.926 233.633,288.195 233.364,287.700 233.164 C 285.051 232.093,284.542 231.877,283.905 231.553 C 283.523 231.359,282.963 231.200,282.659 231.200 C 282.356 231.200,281.646 230.837,281.082 230.393 C 280.404 229.860,279.965 229.733,279.788 230.020 M290.800 234.972 C 290.800 235.381,291.161 235.600,291.833 235.600 C 293.086 235.600,292.949 234.661,291.669 234.472 C 291.092 234.387,290.800 234.555,290.800 234.972 M118.400 235.600 C 118.070 235.813,116.960 235.991,115.933 235.994 C 113.801 236.001,112.704 236.321,113.026 236.842 C 113.353 237.371,117.106 237.282,117.286 236.741 C 117.371 236.488,118.135 236.263,118.986 236.241 C 119.837 236.218,120.608 235.975,120.700 235.700 C 120.900 235.101,119.281 235.031,118.400 235.600 M293.283 235.653 C 293.458 236.180,295.243 236.595,299.347 237.062 C 302.193 237.386,301.643 236.294,298.769 235.912 C 297.576 235.753,295.813 235.507,294.851 235.365 C 293.471 235.161,293.140 235.222,293.283 235.653 " stroke="none" fill="#f2cdce" fill-rule="evenodd"></path><path id="path4" d="M110.400 175.147 C 110.400 175.844,110.527 175.882,111.547 175.497 C 112.490 175.142,112.994 175.212,114.370 175.893 L 116.046 176.722 115.923 175.661 C 115.757 174.226,110.400 173.727,110.400 175.147 M298.578 174.835 C 298.431 175.074,298.465 175.425,298.656 175.616 C 299.146 176.106,302.899 175.502,303.100 174.900 C 303.314 174.259,298.973 174.197,298.578 174.835 M126.400 179.424 C 126.400 179.767,126.573 179.940,126.785 179.809 C 126.997 179.678,127.505 179.892,127.913 180.285 C 128.818 181.156,131.086 182.800,131.384 182.800 C 131.910 182.800,131.532 180.866,130.900 180.319 C 129.386 179.009,126.400 178.416,126.400 179.424 M285.765 179.140 C 284.539 179.522,282.400 181.451,282.400 182.174 C 282.400 183.163,283.432 182.906,284.653 181.613 C 285.269 180.960,286.274 180.315,286.887 180.181 C 287.499 180.046,288.000 179.681,288.000 179.368 C 288.000 178.777,287.194 178.695,285.765 179.140 M157.200 191.190 C 157.200 192.062,163.038 199.942,163.713 199.982 C 164.480 200.027,164.369 198.801,163.526 197.917 C 162.085 196.407,159.473 193.156,158.706 191.919 C 158.024 190.820,157.200 190.421,157.200 191.190 M255.194 192.672 C 254.499 193.701,253.046 195.560,251.965 196.803 C 250.010 199.051,249.480 200.174,250.573 199.755 C 251.644 199.344,257.200 192.183,257.200 191.214 C 257.200 190.308,256.394 190.893,255.194 192.672 M263.149 200.496 C 262.811 200.773,261.693 202.170,260.665 203.600 C 259.637 205.030,258.415 206.677,257.950 207.260 C 257.175 208.230,257.183 209.200,257.966 209.200 C 258.141 209.200,259.013 208.165,259.904 206.900 C 260.794 205.635,262.265 203.801,263.171 202.823 C 264.857 201.006,264.839 199.110,263.149 200.496 M150.205 200.792 C 150.072 201.007,151.322 202.824,152.982 204.830 C 154.642 206.835,156.000 208.729,156.000 209.038 C 156.000 209.798,156.656 209.752,156.956 208.971 C 157.263 208.169,156.659 207.022,154.843 204.964 C 154.049 204.064,152.897 202.669,152.283 201.864 C 151.139 200.365,150.631 200.103,150.205 200.792 M234.872 215.001 C 234.333 216.184,232.173 217.596,230.900 217.599 C 229.930 217.600,229.552 219.158,230.500 219.247 C 232.392 219.427,236.000 216.716,236.000 215.115 C 236.000 213.730,235.476 213.677,234.872 215.001 M179.835 216.743 C 179.478 217.322,184.923 221.224,185.399 220.729 C 186.261 219.835,185.607 218.949,183.200 217.748 C 180.307 216.306,180.137 216.255,179.835 216.743 M217.600 223.813 C 217.050 224.135,215.893 224.358,215.030 224.309 C 213.222 224.207,212.758 224.828,214.105 225.549 C 215.819 226.466,220.131 224.783,219.341 223.504 C 219.079 223.081,218.753 223.139,217.600 223.813 M197.185 224.618 C 196.911 224.949,196.792 225.325,196.921 225.454 C 197.319 225.852,202.400 226.131,202.394 225.755 C 202.380 224.958,201.725 224.590,200.400 224.634 C 199.630 224.660,198.704 224.531,198.342 224.349 C 197.911 224.131,197.512 224.224,197.185 224.618 " stroke="none" fill="#d4bed2" fill-rule="evenodd"></path></g></svg>